<svg width="80" height="80" viewBox="0 0 80 80" fill="none" xmlns="http://www.w3.org/2000/svg">
<rect width="80" height="80" rx="40" fill="#3F3F3F"/>
<path fill-rule="evenodd" clip-rule="evenodd" d="M40.0001 34.5C32.118 34.5 25.1108 40.3175 23.4346 48.505C23.3681 48.8298 23.1774 49.1146 22.9046 49.2965C22.6317 49.4784 22.299 49.5426 21.9795 49.475C21.6601 49.4073 21.3802 49.2134 21.2014 48.9359C21.0226 48.6583 20.9594 48.3198 21.0259 47.995C21.503 45.6688 22.3592 43.5066 23.517 41.5718C23.4616 41.5385 23.4081 41.5004 23.357 41.4575L15.6965 35.0296C15.1677 34.5859 15.0987 33.7974 15.5425 33.2686C15.9862 32.7397 16.7747 32.6708 17.3035 33.1145L24.9284 39.5125C26.3267 37.7205 28.0084 36.1892 29.8913 34.9856C29.768 34.8896 29.6609 34.7686 29.5779 34.6249L24.5779 25.9647C24.2328 25.3668 24.4376 24.6023 25.0355 24.2572C25.6333 23.912 26.3978 24.1168 26.743 24.7147L31.743 33.3749C31.8323 33.5296 31.8848 33.6955 31.9032 33.8623C34.0258 32.8387 36.3406 32.2058 38.7508 32.0423L38.7502 32.0202L38.7501 31.9999V21.9999C38.7501 21.3096 39.3097 20.7499 40.0001 20.7499C40.6904 20.7499 41.2501 21.3096 41.2501 21.9999V31.9999C41.2501 32.0141 41.2498 32.0282 41.2494 32.0423C43.7181 32.2097 46.0868 32.8697 48.2514 33.9376C48.2608 33.7456 48.3148 33.5529 48.4175 33.3749L53.4175 24.7147C53.7627 24.1168 54.5272 23.912 55.1251 24.2572C55.7229 24.6023 55.9278 25.3668 55.5826 25.9647L50.5826 34.6249C50.4831 34.7972 50.3488 34.9369 50.1937 35.0401C52.0713 36.2541 53.7465 37.7951 55.1366 39.596C55.1559 39.5777 55.1759 39.5598 55.1966 39.5424L62.857 33.1145C63.3859 32.6708 64.1743 32.7397 64.6181 33.2686C65.0618 33.7974 64.9928 34.5859 64.464 35.0296L56.8036 41.4575C56.7158 41.5311 56.6209 41.5906 56.5216 41.6363C57.6599 43.5546 58.5025 45.6946 58.9743 47.995C59.0408 48.3198 58.9777 48.6583 58.7988 48.9359C58.62 49.2134 58.3401 49.4073 58.0207 49.475C57.7013 49.5426 57.3685 49.4784 57.0956 49.2965C56.8228 49.1146 56.6321 48.8298 56.5656 48.505C54.887 40.3175 47.8798 34.5 40.0001 34.5Z" fill="white"/>
<path d="M40.1023 58C37.8208 58 35.6328 57.0781 34.0196 55.4372C32.4063 53.7962 31.5 51.5706 31.5 49.25C31.5 46.9294 32.4063 44.7038 34.0196 43.0628C35.6328 41.4219 37.8208 40.5 40.1023 40.5C42.3838 40.5 44.5718 41.4219 46.185 43.0628C47.7983 44.7038 48.7046 46.9294 48.7046 49.25C48.7046 51.5706 47.7983 53.7962 46.185 55.4372C44.5718 57.0781 42.3838 58 40.1023 58ZM33.9578 49.25C33.9578 50.9076 34.6052 52.4973 35.7575 53.6694C36.9098 54.8415 38.4727 55.5 40.1023 55.5C41.7319 55.5 43.2948 54.8415 44.4471 53.6694C45.5994 52.4973 46.2468 50.9076 46.2468 49.25C46.2468 47.5924 45.5994 46.0027 44.4471 44.8306C43.2948 43.6585 41.7319 43 40.1023 43C38.4727 43 36.9098 43.6585 35.7575 44.8306C34.6052 46.0027 33.9578 47.5924 33.9578 49.25Z" fill="white"/>
</svg>
