<svg width="92" height="120" viewBox="0 0 92 120" fill="none" xmlns="http://www.w3.org/2000/svg">
<path d="M54.634 119.162C53.5304 119.148 52.6741 118.826 52.0651 118.198C51.4459 117.571 51.144 116.692 51.1595 115.563L51.2211 111.081L53.4838 111.112L53.4301 115.024C53.4205 115.723 53.5901 116.28 53.9388 116.694C54.2875 117.109 54.8061 117.321 55.4945 117.33C56.2943 117.341 56.9306 117.089 57.4035 116.576C57.8762 116.072 58.1189 115.356 58.1317 114.427L58.1763 111.174L60.4391 111.205L60.3854 115.117C60.3758 115.816 60.5453 116.373 60.894 116.787C61.2428 117.202 61.7664 117.414 62.465 117.423C63.2546 117.434 63.8859 117.182 64.3587 116.669C64.8315 116.165 65.0742 115.449 65.0869 114.52L65.1316 111.267L67.3943 111.298L67.2865 119.152L65.206 119.124L65.2313 117.28C64.494 118.62 63.285 119.278 61.6044 119.255C60.7641 119.244 60.063 119.05 59.5012 118.673C58.929 118.305 58.5312 117.78 58.3077 117.098C57.9641 117.783 57.476 118.301 56.8434 118.652C56.2107 119.003 55.4743 119.174 54.634 119.162Z" fill="#3F3F3F"/>
<path d="M44.2182 118.056L43.6475 120L41.3427 119.341L41.9134 117.397L44.2182 118.056ZM46.6564 109.483L44.4412 117.028L42.2677 116.406L44.4828 108.862L46.6564 109.483Z" fill="#3F3F3F"/>
<path d="M38.4944 107.754C39.0041 108.858 38.947 109.976 38.323 111.108C37.699 112.241 36.7815 112.892 35.5704 113.061C34.3545 113.239 33.0172 112.936 31.5584 112.153C30.1086 111.375 29.1288 110.434 28.6191 109.33C28.1045 108.235 28.1592 107.121 28.7832 105.988C29.4072 104.856 30.3271 104.201 31.543 104.023C32.7541 103.854 34.0846 104.158 35.5345 104.937C36.9932 105.719 37.9799 106.659 38.4944 107.754ZM34.7595 111.175C35.4753 111.047 36.0049 110.672 36.3483 110.049C36.6918 109.425 36.7233 108.782 36.4428 108.12C36.1535 107.453 35.5774 106.888 34.7146 106.425C33.8518 105.962 33.0625 105.794 32.3467 105.922C31.622 106.045 31.088 106.418 30.7445 107.041C30.4011 107.664 30.3741 108.31 30.6634 108.977C30.9439 109.639 31.5155 110.202 32.3783 110.665C33.2411 111.128 34.0349 111.298 34.7595 111.175Z" fill="#3F3F3F"/>
<path d="M19.6328 92.5629L21.7512 94.6484L22.0042 99.2588L23.058 100.296L25.2674 98.1099L26.8696 99.6872L18.9758 107.499L17.3735 105.921L21.8138 101.527L20.7278 100.458L16.1956 100.273L14.217 98.3254L20.0491 98.8161L19.6328 92.5629Z" fill="#3F3F3F"/>
<path d="M8.99977 82.0158L9.21226 81.8994L13.2497 89.0826C14.2455 88.2174 14.2817 86.9634 13.3582 85.3205C12.7345 84.2107 12.041 83.5847 11.278 83.4425L10.2894 81.4982C11.087 81.3929 11.8687 81.5991 12.6345 82.117C13.3914 82.6396 14.0842 83.4602 14.7129 84.5788C15.5479 86.0644 15.9075 87.4046 15.7917 88.5993C15.671 89.7854 14.9997 90.7129 13.7778 91.3819C12.5737 92.0412 11.428 92.1143 10.3406 91.6011C9.24835 91.0792 8.30192 90.1061 7.50131 88.6817C5.82641 85.7018 6.3259 83.4798 8.99977 82.0158ZM8.85595 87.94C9.73024 89.4955 10.7895 90.0926 12.0338 89.7313L9.08674 84.488C8.59777 84.8129 8.33245 85.2782 8.29077 85.8838C8.23533 86.4856 8.42372 87.171 8.85595 87.94Z" fill="#3F3F3F"/>
<path d="M1.4348 73.0392C1.31966 72.6041 1.25884 72.1963 1.25234 71.8158L3.16264 71.3234C3.25314 71.9817 3.34316 72.4801 3.43271 72.8185C3.67834 73.7467 4.11343 74.3627 4.73798 74.6665C5.36253 74.9703 6.2332 74.9783 7.34999 74.6904L10.0979 73.982L10.6697 76.1431L2.96975 78.128L2.44012 76.1265L4.4092 75.6189C3.63689 75.5081 2.99915 75.2336 2.49596 74.7952C1.98041 74.3497 1.62669 73.7644 1.4348 73.0392Z" fill="#3F3F3F"/>
<path d="M0.000371711 60.4042C0.00672894 57.3262 1.20465 55.7819 3.59414 55.7714L8.11998 55.7515L8.12932 57.8201L6.44352 57.8275C7.69258 58.6415 8.32144 60.0078 8.3301 61.9265C8.33543 63.1057 8.12178 64.0011 7.68916 64.6126C7.24637 65.2141 6.6706 65.5165 5.96185 65.5196C5.17211 65.5231 4.58828 65.1609 4.21036 64.433C3.82228 63.6952 3.57933 62.587 3.48153 61.1084L3.27009 58.0064L3.13341 58.007C2.64741 58.0091 2.26356 58.2106 1.98187 58.6116C1.69001 59.0027 1.54588 59.5979 1.54949 60.3974C1.55571 61.7764 1.92391 62.5943 2.65408 62.8509L2.66355 64.9495C2.02532 64.8723 1.50269 64.6098 1.09566 64.1619C0.688632 63.714 0.402698 63.1756 0.237858 62.5467C0.0730173 61.9179 -0.00614468 61.2037 0.000371711 60.4042ZM6.77828 61.3337C6.77373 60.3244 6.58276 59.5158 6.20539 58.9078C5.81789 58.2999 5.35583 57.9972 4.81921 57.9995L4.54583 58.0007L4.75599 60.818C4.8104 61.6572 4.9246 62.2813 5.09857 62.6902C5.26242 63.0992 5.50634 63.303 5.83034 63.3016C6.12396 63.3003 6.35609 63.1344 6.52673 62.8039C6.69736 62.4733 6.78121 61.9833 6.77828 61.3337Z" fill="#3F3F3F"/>
<path d="M4.81071 36.3411C5.17263 35.312 5.75139 34.6112 6.54697 34.2385C7.34587 33.8563 8.28575 33.8504 9.36661 34.2208L13.6566 35.6906L12.9144 37.8006L9.1697 36.5176C8.50015 36.2882 7.91118 36.2715 7.40279 36.4675C6.89441 36.6636 6.52732 37.0826 6.30153 37.7246C6.03922 38.4704 6.08039 39.1456 6.42503 39.7503C6.76011 40.3517 7.37243 40.8048 8.26199 41.1096L11.3754 42.1764L10.6333 44.2864L6.88858 43.0033C6.21902 42.7739 5.63005 42.7572 5.12167 42.9533C4.61328 43.1494 4.24453 43.5731 4.01543 44.2245C3.75643 44.9609 3.79926 45.6314 4.14391 46.2361C4.47899 46.8375 5.0913 47.2906 5.98086 47.5954L9.0943 48.6621L8.35218 50.7721L0.834015 48.1962L1.51636 46.2561L3.28112 46.8608C2.22558 45.7481 1.97341 44.4081 2.5246 42.841C2.80019 42.0574 3.20792 41.4619 3.74777 41.0545C4.28138 40.6343 4.91158 40.4271 5.63838 40.4329C5.08796 39.8952 4.74351 39.2747 4.60503 38.5714C4.46656 37.8681 4.53511 37.1246 4.81071 36.3411Z" fill="#3F3F3F"/>
<path d="M9.15629 26.9329L7.46716 25.7859L8.82734 23.8347L10.5165 24.9817L9.15629 26.9329ZM16.6315 31.9183L10.0752 27.466L11.3579 25.6259L17.9142 30.0782L16.6315 31.9183Z" fill="#3F3F3F"/>
<path d="M28.188 19.2478L26.0152 21.2779L21.3387 21.3953L20.2578 22.4052L22.4086 24.6477L20.7652 26.1831L13.0807 18.171L14.7241 16.6356L19.0466 21.1424L20.1606 20.1016L20.478 15.6355L22.5074 13.7393L21.8431 19.4791L28.188 19.2478Z" fill="#3F3F3F"/>
<path d="M32.2916 7.48003C35.0702 6.08248 37.0089 6.43087 38.1076 8.52519L40.1887 12.492L38.3275 13.4432L37.5523 11.9656C37.3877 13.4339 36.4422 14.6092 34.7159 15.4915C33.655 16.0337 32.7502 16.2542 32.0015 16.1529C31.2572 16.0381 30.7221 15.6701 30.3962 15.0489C30.0331 14.3568 30.0935 13.6788 30.5776 13.015C31.0661 12.3377 31.9547 11.6191 33.2435 10.8592L35.9444 9.25934L35.8816 9.13954C35.6581 8.71358 35.3014 8.46826 34.8114 8.40359C34.3257 8.32544 33.7232 8.47018 33.0039 8.83778C31.7631 9.47191 31.1935 10.1682 31.2949 10.9266L29.4068 11.8916C29.1854 11.2957 29.1839 10.7169 29.4023 10.1552C29.6206 9.59344 29.9758 9.09683 30.4678 8.66535C30.9597 8.23387 31.5677 7.83876 32.2916 7.48003ZM34.5431 13.858C35.4512 13.3939 36.0934 12.8575 36.4696 12.2489C36.8411 11.6314 36.9035 11.0874 36.6567 10.6171L36.531 10.3775L34.0863 11.8464C33.3543 12.2767 32.8436 12.6615 32.5541 13.0008C32.26 13.3312 32.1874 13.6384 32.3364 13.9223C32.4714 14.1797 32.7268 14.308 33.1027 14.3072C33.4785 14.3064 33.9587 14.1567 34.5431 13.858Z" fill="#3F3F3F"/>
<path d="M65.3076 0.848376C66.4111 0.862064 67.2678 1.18251 67.8774 1.80971C68.4973 2.43703 68.8 3.31527 68.7856 4.44443L68.7285 8.92609L66.4658 8.89803L66.5156 4.98594C66.5245 4.28646 66.3544 3.72968 66.0052 3.31559C65.6561 2.9015 65.1373 2.69018 64.4489 2.68164C63.6491 2.67172 63.013 2.92368 62.5407 3.43752C62.0685 3.94136 61.8264 4.65794 61.8146 5.58725L61.7732 8.83982L59.5104 8.81176L59.5602 4.89967C59.5691 4.20019 59.399 3.64341 59.0499 3.22932C58.7008 2.81523 58.1769 2.60385 57.4783 2.59519C56.6887 2.58539 56.0576 2.83741 55.5853 3.35125C55.1131 3.85509 54.8711 4.57167 54.8593 5.50098L54.8178 8.75355L52.5551 8.72549L52.6551 0.871337L54.7356 0.897143L54.7121 2.74077C55.4481 1.40069 56.6564 0.741073 58.3371 0.761919C59.1774 0.772341 59.8787 0.965931 60.4409 1.34269C61.0134 1.70958 61.4118 2.23421 61.636 2.9166C61.9788 2.23125 62.4664 1.71261 63.0987 1.36066C63.731 1.00872 64.4673 0.837954 65.3076 0.848376Z" fill="#3F3F3F"/>
<path d="M75.7244 1.94423L76.2932 0L78.5986 0.657017L78.0299 2.60125L75.7244 1.94423ZM73.2948 10.5196L75.5025 2.97314L77.6766 3.59273L75.4689 11.1392L73.2948 10.5196Z" fill="#3F3F3F"/>
<path d="M81.4585 12.2412C80.9477 11.1377 81.0037 10.0194 81.6266 8.88631C82.2494 7.75319 83.1663 7.10153 84.3772 6.93134C85.5929 6.75236 86.9306 7.05364 88.3901 7.83518C89.8408 8.61195 90.8215 9.55208 91.3323 10.6556C91.8479 11.7502 91.7943 12.8642 91.1715 13.9973C90.5487 15.1304 89.6293 15.7865 88.4136 15.9654C87.2027 16.1356 85.8719 15.8323 84.4213 15.0556C82.9618 14.274 81.9742 13.3359 81.4585 12.2412ZM85.19 8.81615C84.4744 8.94456 83.9451 9.32059 83.6023 9.94425C83.2595 10.5679 83.2287 11.2108 83.5098 11.873C83.7998 12.5399 84.3764 13.1044 85.2397 13.5667C86.103 14.0289 86.8924 14.1959 87.6081 14.0675C88.3326 13.9438 88.8663 13.5702 89.2091 12.9465C89.5519 12.3228 89.5783 11.6776 89.2883 11.0106C89.0072 10.3485 88.435 9.78631 87.5717 9.32406C86.7085 8.8618 85.9146 8.6925 85.19 8.81615Z" fill="#3F3F3F"/>
<path d="M100.335 27.4137L98.2148 25.3304L97.9572 20.7201L96.9024 19.6837L94.6951 21.8722L93.0913 20.2965L100.977 12.4775L102.581 14.0532L98.1453 18.4514L99.2324 19.5195L103.765 19.7001L105.745 21.646L99.9128 21.1609L100.335 27.4137Z" fill="#3F3F3F"/>
<path d="M110.979 37.9506L110.766 38.0672L106.722 30.8879C105.727 31.754 105.692 33.0081 106.617 34.6501C107.242 35.7593 107.936 36.3846 108.699 36.5261L109.69 38.4694C108.892 38.5755 108.11 38.37 107.344 37.8529C106.586 37.331 105.893 36.5111 105.263 35.3931C104.427 33.9084 104.066 32.5685 104.18 31.3736C104.3 30.1875 104.97 29.2593 106.191 28.5891C107.395 27.9286 108.54 27.8544 109.628 28.3665C110.721 28.8874 111.669 29.8596 112.471 31.2832C114.148 34.2615 113.651 36.484 110.979 37.9506ZM111.117 32.0263C110.241 30.4716 109.181 29.8756 107.937 30.2381L110.889 35.4784C111.378 35.1531 111.643 34.6876 111.684 34.0819C111.739 33.4801 111.55 32.7949 111.117 32.0263Z" fill="#3F3F3F"/>
<path d="M118.553 46.9198C118.668 47.3548 118.729 47.7625 118.736 48.143L116.826 48.6373C116.735 47.979 116.645 47.4807 116.555 47.1424C116.308 46.2144 115.873 45.5988 115.248 45.2957C114.623 44.9925 113.752 44.9854 112.636 45.2743L109.889 45.9854L109.315 43.8249L117.013 41.8325L117.544 43.8335L115.576 44.343C116.348 44.453 116.986 44.727 117.49 45.1648C118.006 45.6098 118.36 46.1948 118.553 46.9198Z" fill="#3F3F3F"/>
<path d="M120 59.5534C119.996 62.6314 118.8 64.1768 116.411 64.1897L111.885 64.214L111.873 62.1454L113.559 62.1363C112.309 61.3236 111.679 59.9578 111.668 58.0392C111.662 56.86 111.875 55.9644 112.307 55.3525C112.749 54.7505 113.324 54.4476 114.033 54.4438C114.823 54.4395 115.407 54.8012 115.786 55.5287C116.175 56.2661 116.419 57.3741 116.518 58.8526L116.732 61.9544L116.869 61.9537C117.355 61.9511 117.739 61.7491 118.02 61.3479C118.311 60.9566 118.455 60.3612 118.451 59.5617C118.443 58.1827 118.074 57.3652 117.344 57.1093L117.332 55.0107C117.97 55.0872 118.493 55.3492 118.901 55.7968C119.308 56.2443 119.595 56.7824 119.76 57.4111C119.926 58.0398 120.005 58.7539 120 59.5534ZM113.221 58.6304C113.226 59.6397 113.418 60.4482 113.796 61.0558C114.184 61.6633 114.647 61.9656 115.183 61.9627L115.457 61.9613L115.244 59.1442C115.188 58.3051 115.074 57.6811 114.899 57.2723C114.735 56.8634 114.491 56.6599 114.167 56.6616C113.873 56.6632 113.641 56.8293 113.471 57.16C113.301 57.4907 113.217 57.9809 113.221 58.6304Z" fill="#3F3F3F"/>
<path d="M115.213 83.6212C114.852 84.6506 114.274 85.352 113.479 85.7255C112.681 86.1084 111.741 86.1152 110.66 85.7459L106.368 84.2802L107.108 82.1695L110.854 83.4489C111.524 83.6777 112.113 83.6938 112.621 83.4972C113.129 83.3007 113.496 82.8813 113.721 82.2391C113.983 81.4931 113.941 80.8178 113.596 80.2135C113.26 79.6124 112.647 79.1599 111.757 78.856L108.643 77.7923L109.383 75.6816L113.129 76.961C113.799 77.1897 114.388 77.2058 114.896 77.0093C115.404 76.8127 115.772 76.3886 116.001 75.737C116.259 75.0004 116.216 74.3299 115.87 73.7255C115.535 73.1244 114.922 72.6719 114.032 72.368L110.917 71.3043L111.657 69.1936L119.178 71.7622L118.498 73.7029L116.732 73.1C117.789 74.2117 118.043 75.5514 117.493 77.119C117.218 77.9029 116.811 78.4988 116.272 78.9067C115.738 79.3274 115.108 79.5352 114.382 79.5302C114.933 80.0673 115.278 80.6875 115.417 81.3907C115.556 82.0938 115.488 82.8373 115.213 83.6212Z" fill="#3F3F3F"/>
<path d="M110.877 93.0335L112.567 94.1789L111.209 96.1314L109.519 94.986L110.877 93.0335ZM103.397 88.0554L109.958 92.5014L108.677 94.3427L102.116 89.8967L103.397 88.0554Z" fill="#3F3F3F"/>
<path d="M91.8531 100.737L94.0238 98.7049L98.7003 98.583L99.7802 97.5721L97.6271 95.3316L99.269 93.7946L106.961 101.799L105.32 103.336L100.993 98.8337L99.8796 99.8756L99.5667 104.342L97.5391 106.24L98.1978 100.5L91.8531 100.737Z" fill="#3F3F3F"/>
<path d="M87.7612 112.509C84.984 113.909 83.045 113.563 81.9442 111.469L79.8591 107.505L81.7194 106.552L82.496 108.028C82.6591 106.56 83.6035 105.384 85.3289 104.5C86.3893 103.957 87.2939 103.735 88.0426 103.836C88.7871 103.95 89.3226 104.317 89.6491 104.938C90.0129 105.63 89.9531 106.308 89.4697 106.972C88.9819 107.65 88.094 108.369 86.806 109.131L84.1066 110.733L84.1696 110.853C84.3935 111.279 84.7504 111.524 85.2405 111.588C85.7263 111.665 86.3286 111.52 87.0475 111.152C88.2877 110.516 88.8567 109.82 88.7545 109.061L90.6416 108.095C90.8636 108.69 90.8657 109.269 90.6479 109.831C90.4301 110.393 90.0754 110.89 89.5839 111.322C89.0923 111.754 88.4848 112.149 87.7612 112.509ZM85.5033 106.133C84.5957 106.598 83.9541 107.135 83.5785 107.744C83.2076 108.362 83.1457 108.906 83.3929 109.376L83.5189 109.616L85.9621 108.144C86.6937 107.713 87.204 107.328 87.4932 106.988C87.787 106.658 87.8593 106.35 87.71 106.067C87.5747 105.809 87.3192 105.681 86.9433 105.682C86.5675 105.684 86.0875 105.834 85.5033 106.133Z" fill="#3F3F3F"/>
</svg>
