<svg width="25" height="27" viewBox="0 0 25 27" fill="none" xmlns="http://www.w3.org/2000/svg">
<path d="M11.1152 10.2857C10.421 10.2857 9.85299 9.70714 9.85299 9V6.42857H7.32849C6.63425 6.42857 6.06624 5.85 6.06624 5.14286C6.06624 4.43571 6.63425 3.85714 7.32849 3.85714H9.85299V1.28571C9.85299 0.578571 10.421 0 11.1152 0C11.8095 0 12.3775 0.578571 12.3775 1.28571V3.85714H14.902C15.5962 3.85714 16.1642 4.43571 16.1642 5.14286C16.1642 5.85 15.5962 6.42857 14.902 6.42857H12.3775V9C12.3775 9.70714 11.8095 10.2857 11.1152 10.2857ZM17.4265 21.8571C18.815 21.8571 19.9384 23.0143 19.9384 24.4286C19.9384 25.8429 18.815 27 17.4265 27C16.038 27 14.902 25.8429 14.902 24.4286C14.902 23.0143 16.038 21.8571 17.4265 21.8571ZM4.80399 21.8571C6.19246 21.8571 7.31587 23.0143 7.31587 24.4286C7.31587 25.8429 6.19246 27 4.80399 27C3.41551 27 2.27949 25.8429 2.27949 24.4286C2.27949 23.0143 3.41551 21.8571 4.80399 21.8571ZM16.038 15.4286H6.63425C5.68756 15.4286 4.85448 14.9014 4.42531 14.1043L0.158905 6.22286C-0.181904 5.60571 0.0453014 4.82143 0.651182 4.47429C0.942671 4.31178 1.28543 4.2733 1.60467 4.36724C1.92391 4.46118 2.19372 4.67991 2.35522 4.97571L6.63425 12.8571H15.4953L20.5316 2.01857C20.6331 1.79911 20.7938 1.61362 20.995 1.48383C21.1962 1.35405 21.4295 1.28532 21.6677 1.28571H23.7377C24.432 1.28571 25 1.86429 25 2.57143C25 3.27857 24.432 3.85714 23.7377 3.85714H22.4755L17.9314 13.6157L19.6354 16.7529C20.5569 18.4757 19.3451 20.5714 17.4265 20.5714H3.54174C2.8475 20.5714 2.27949 19.9929 2.27949 19.2857C2.27949 18.5786 2.8475 18 3.54174 18H17.4265L16.038 15.4286Z" fill="white"/>
</svg>
