<svg width="121" height="150" viewBox="0 0 121 150" fill="none" xmlns="http://www.w3.org/2000/svg">
<path d="M39.2925 148.953C37.913 148.934 36.8427 148.533 36.0813 147.748C35.3074 146.963 34.9301 145.865 34.9494 144.454L35.0263 138.852L37.8548 138.889L37.7876 143.779C37.7756 144.654 37.9876 145.35 38.4235 145.868C38.8594 146.386 39.5076 146.651 40.3681 146.662C41.3679 146.676 42.1633 146.361 42.7544 145.72C43.3452 145.091 43.6487 144.195 43.6646 143.033L43.7204 138.968L46.5488 139.006L46.4817 143.896C46.4697 144.77 46.6816 145.466 47.1175 145.984C47.5534 146.502 48.208 146.767 49.0812 146.779C50.0683 146.792 50.8574 146.478 51.4484 145.836C52.0393 145.207 52.3427 144.311 52.3587 143.15L52.4145 139.084L55.2429 139.122L55.1081 148.939L52.5075 148.905L52.5391 146.6C51.6175 148.274 50.1063 149.097 48.0055 149.069C46.9551 149.055 46.0788 148.812 45.3764 148.341C44.6613 147.882 44.164 147.225 43.8846 146.372C43.4551 147.228 42.845 147.876 42.0542 148.315C41.2634 148.754 40.3428 148.967 39.2925 148.953Z" fill="#3F3F3F" fill-opacity="0.25"/>
<path d="M26.2727 147.57L25.5593 150L22.6783 149.176L23.3917 146.746L26.2727 147.57ZM29.3205 136.854L26.5515 146.285L23.8346 145.507L26.6036 136.077L29.3205 136.854Z" fill="#3F3F3F" fill-opacity="0.25"/>
<path d="M19.118 134.692C19.7552 136.072 19.6837 137.47 18.9038 138.886C18.1238 140.301 16.9769 141.115 15.4631 141.326C13.9432 141.548 12.2715 141.17 10.448 140.191C8.6357 139.219 7.41096 138.042 6.77383 136.662C6.13065 135.293 6.19905 133.901 6.97902 132.485C7.75899 131.07 8.90892 130.251 10.4288 130.028C11.9426 129.817 13.6057 130.198 15.4181 131.171C17.2415 132.149 18.4748 133.323 19.118 134.692ZM14.4494 138.969C15.3441 138.809 16.0061 138.34 16.4354 137.561C16.8647 136.782 16.9041 135.978 16.5535 135.15C16.1918 134.316 15.4717 133.61 14.3932 133.031C13.3147 132.452 12.3281 132.242 11.4334 132.402C10.5275 132.556 9.85997 133.022 9.43068 133.801C9.00139 134.58 8.96759 135.387 9.32927 136.221C9.67984 137.049 10.3944 137.752 11.4729 138.331C12.5514 138.91 13.5436 139.123 14.4494 138.969Z" fill="#3F3F3F" fill-opacity="0.25"/>
<path d="M-4.459 115.704L-1.81105 118.31L-1.49477 124.074L-0.177515 125.37L2.58426 122.637L4.58702 124.609L-5.28031 134.373L-7.28306 132.402L-1.73269 126.909L-3.09027 125.573L-8.75551 125.341L-11.2287 122.907L-3.93866 123.52L-4.459 115.704Z" fill="#3F3F3F" fill-opacity="0.25"/>
<path d="M-17.7503 102.52L-17.4847 102.374L-12.4379 111.353C-11.1932 110.272 -11.1479 108.704 -12.3022 106.651C-13.0819 105.263 -13.9487 104.481 -14.9025 104.303L-16.1383 101.873C-15.1413 101.741 -14.1641 101.999 -13.2069 102.646C-12.2608 103.3 -11.3948 104.325 -10.6089 105.723C-9.56514 107.58 -9.11565 109.256 -9.2604 110.749C-9.4113 112.232 -10.2504 113.391 -11.7777 114.227C-13.2829 115.052 -14.715 115.143 -16.0742 114.501C-17.4396 113.849 -18.6226 112.633 -19.6234 110.852C-21.717 107.127 -21.0926 104.35 -17.7503 102.52ZM-17.9301 109.925C-16.8372 111.869 -15.5131 112.616 -13.9578 112.164L-17.6416 105.61C-18.2528 106.016 -18.5844 106.598 -18.6365 107.355C-18.7058 108.107 -18.4704 108.964 -17.9301 109.925Z" fill="#3F3F3F" fill-opacity="0.25"/>
<path d="M-27.2065 91.299C-27.3504 90.7551 -27.4264 90.2453 -27.4346 89.7697L-25.0467 89.1542C-24.9336 89.9771 -24.821 90.6001 -24.7091 91.0231C-24.4021 92.1834 -23.8582 92.9534 -23.0775 93.3332C-22.2968 93.7129 -21.2085 93.7228 -19.8125 93.363L-16.3776 92.4775L-15.6628 95.1788L-25.2878 97.66L-25.9499 95.1581L-23.4885 94.5236C-24.4539 94.3851 -25.2511 94.0419 -25.8801 93.494C-26.5245 92.9371 -26.9666 92.2054 -27.2065 91.299Z" fill="#3F3F3F" fill-opacity="0.25"/>
<path d="M-28.9995 75.5052C-28.9916 71.6577 -27.4942 69.7274 -24.5073 69.7142L-18.85 69.6894L-18.8384 72.2751L-20.9456 72.2844C-19.3843 73.3018 -18.5982 75.0098 -18.5874 77.4081C-18.5807 78.8822 -18.8478 80.0013 -19.3886 80.7657C-19.942 81.5177 -20.6618 81.8956 -21.5477 81.8995C-22.5349 81.9038 -23.2647 81.4511 -23.737 80.5413C-24.2222 79.619 -24.5258 78.2337 -24.6481 76.3855L-24.9124 72.5079L-25.0832 72.5087C-25.6907 72.5114 -26.1705 72.7633 -26.5227 73.2645C-26.8875 73.7533 -27.0677 74.4974 -27.0631 75.4967C-27.0554 77.2205 -26.5951 78.2428 -25.6824 78.5636L-25.6706 81.1868C-26.4684 81.0904 -27.1216 80.7622 -27.6304 80.2024C-28.1392 79.6425 -28.4966 78.9695 -28.7027 78.1834C-28.9087 77.3973 -29.0077 76.5046 -28.9995 75.5052ZM-20.5271 76.6672C-20.5328 75.4055 -20.7715 74.3947 -21.2433 73.6348C-21.7276 72.8749 -22.3052 72.4965 -22.976 72.4994L-23.3177 72.5009L-23.055 76.0225C-22.987 77.0715 -22.8443 77.8516 -22.6268 78.3628C-22.422 78.8741 -22.1171 79.1288 -21.7121 79.127C-21.345 79.1254 -21.0549 78.918 -20.8416 78.5048C-20.6283 78.0917 -20.5235 77.4791 -20.5271 76.6672Z" fill="#3F3F3F" fill-opacity="0.25"/>
<path d="M-22.9866 45.4263C-22.5342 44.14 -21.8108 43.264 -20.8163 42.7981C-19.8177 42.3204 -18.6428 42.313 -17.2917 42.776L-11.9293 44.6133L-12.8569 47.2507L-17.5379 45.6469C-18.3748 45.3602 -19.111 45.3394 -19.7465 45.5844C-20.382 45.8295 -20.8408 46.3533 -21.1231 47.1557C-21.451 48.088 -21.3995 48.9321 -20.9687 49.6879C-20.5499 50.4397 -19.7845 51.0061 -18.6725 51.387L-14.7807 52.7204L-15.7084 55.3579L-20.3893 53.7541C-21.2262 53.4674 -21.9624 53.4465 -22.5979 53.6916C-23.2334 53.9367 -23.6943 54.4664 -23.9807 55.2806C-24.3045 56.2011 -24.2509 57.0393 -23.8201 57.7951C-23.4013 58.5469 -22.6359 59.1132 -21.5239 59.4942L-17.6321 60.8276L-18.5598 63.4651L-27.9575 60.2453L-27.1045 57.8202L-24.8986 58.576C-26.218 57.1851 -26.5332 55.5102 -25.8443 53.5512C-25.4998 52.5718 -24.9901 51.8274 -24.3153 51.3181C-23.6483 50.7929 -22.8605 50.5339 -21.952 50.5411C-22.6401 49.869 -23.0706 49.0934 -23.2437 48.2142C-23.4168 47.3351 -23.3311 46.4058 -22.9866 45.4263Z" fill="#3F3F3F" fill-opacity="0.25"/>
<path d="M-17.5546 33.6662L-19.666 32.2323L-17.9658 29.7934L-15.8544 31.2272L-17.5546 33.6662ZM-8.21065 39.8979L-16.406 34.3325L-14.8027 32.0324L-6.60727 37.5978L-8.21065 39.8979Z" fill="#3F3F3F" fill-opacity="0.25"/>
<path d="M6.23505 24.0598L3.51904 26.5974L-2.32668 26.7441L-3.67779 28.0065L-0.989254 30.8096L-3.04349 32.7289L-12.6491 22.7138L-10.5949 20.7945L-5.19172 26.428L-3.79925 25.127L-3.40248 19.5443L-0.865698 17.1742L-1.69613 24.3488L6.23505 24.0598Z" fill="#3F3F3F" fill-opacity="0.25"/>
<path d="M11.3645 9.35003C14.8377 7.6031 17.2611 8.03858 18.6345 10.6565L21.2358 15.615L18.9094 16.8039L17.9404 14.957C17.7346 16.7924 16.5528 18.2615 14.3949 19.3644C13.0687 20.0421 11.9377 20.3177 11.0019 20.1911C10.0715 20.0477 9.40262 19.5877 8.99525 18.8112C8.54132 17.9459 8.61692 17.0985 9.22203 16.2687C9.83257 15.4221 10.9433 14.5239 12.5543 13.574L15.9305 11.5742L15.852 11.4244C15.5726 10.892 15.1267 10.5853 14.5142 10.5045C13.9071 10.4068 13.154 10.5877 12.2549 11.0472C10.7039 11.8399 9.99184 12.7102 10.1186 13.6582L7.75845 14.8645C7.48173 14.1197 7.47985 13.3962 7.75282 12.694C8.02579 11.9918 8.46975 11.371 9.08469 10.8317C9.69963 10.2923 10.4596 9.79845 11.3645 9.35003ZM14.1789 17.3225C15.314 16.7424 16.1167 16.0719 16.5869 15.3111C17.0514 14.5392 17.1294 13.8593 16.8209 13.2714L16.6638 12.9719L13.6079 14.808C12.6929 15.3459 12.0545 15.8269 11.6926 16.251C11.325 16.664 11.2342 17.048 11.4205 17.4029C11.5892 17.7246 11.9085 17.885 12.3783 17.884C12.8482 17.883 13.4483 17.6959 14.1789 17.3225Z" fill="#3F3F3F" fill-opacity="0.25"/>
<path d="M52.6345 1.06047C54.0139 1.07758 55.0847 1.47813 55.8468 2.26213C56.6216 3.04629 57 4.14409 56.982 5.55554L56.9107 11.1576L54.0822 11.1225L54.1445 6.23243C54.1556 5.35808 53.943 4.6621 53.5066 4.14448C53.0701 3.62687 52.4217 3.36273 51.5611 3.35205C50.5613 3.33965 49.7662 3.6546 49.1758 4.2969C48.5856 4.9267 48.2831 5.82242 48.2683 6.98406L48.2165 11.0498L45.388 11.0147L45.4503 6.12459C45.4614 5.25024 45.2488 4.55426 44.8124 4.03665C44.376 3.51903 43.7211 3.25481 42.8479 3.24398C41.8608 3.23174 41.0721 3.54676 40.4816 4.18906C39.8914 4.81887 39.5889 5.71459 39.5741 6.87622L39.5223 10.9419L36.6938 10.9069L36.8189 1.08917L39.4195 1.12143L39.3902 3.42596C40.3102 1.75086 41.8206 0.926342 43.9213 0.952398C44.9717 0.965427 45.8483 1.20741 46.5511 1.67836C47.2668 2.13697 47.7647 2.79277 48.045 3.64574C48.4736 2.78907 49.083 2.14076 49.8734 1.70083C50.6637 1.26089 51.5841 1.04744 52.6345 1.06047Z" fill="#3F3F3F" fill-opacity="0.25"/>
<path d="M65.6555 2.43029L66.3665 0L69.2483 0.821271L68.5373 3.25156L65.6555 2.43029ZM62.6185 13.1495L65.3781 3.71643L68.0957 4.49091L65.3361 13.924L62.6185 13.1495Z" fill="#3F3F3F" fill-opacity="0.25"/>
<path d="M72.8232 15.3015C72.1847 13.9222 72.2547 12.5243 73.0332 11.1079C73.8118 9.69148 74.9579 8.87691 76.4715 8.66417C77.9912 8.44045 79.6632 8.81705 81.4877 9.79397C83.301 10.7649 84.5269 11.9401 85.1654 13.3194C85.8099 14.6878 85.7429 16.0802 84.9644 17.4966C84.1858 18.913 83.0367 19.7331 81.517 19.9568C80.0034 20.1695 78.3399 19.7904 76.5266 18.8195C74.7022 17.8425 73.4677 16.6699 72.8232 15.3015ZM77.4875 11.0202C76.5929 11.1807 75.9314 11.6507 75.5029 12.4303C75.0744 13.2099 75.0358 14.0135 75.3872 14.8412C75.7497 15.6748 76.4705 16.3805 77.5496 16.9584C78.6287 17.5362 79.6155 17.7448 80.5101 17.5843C81.4158 17.4298 82.0829 16.9627 82.5114 16.1831C82.9399 15.4035 82.9729 14.5969 82.6104 13.7633C82.259 12.9356 81.5438 12.2329 80.4647 11.6551C79.3856 11.0773 78.3932 10.8656 77.4875 11.0202Z" fill="#3F3F3F" fill-opacity="0.25"/>
<path d="M96.4191 34.2672L93.7685 31.663L93.4465 25.9002L92.128 24.6047L89.3689 27.3403L87.3642 25.3706L97.2218 15.5969L99.2265 17.5665L93.6816 23.0642L95.0405 24.3994L100.706 24.6252L103.182 27.0575L95.8909 26.4512L96.4191 34.2672Z" fill="#3F3F3F" fill-opacity="0.25"/>
<path d="M109.723 47.4383L109.458 47.584L104.402 38.6098C103.159 39.6925 103.115 41.2602 104.271 43.3126C105.052 44.6991 105.92 45.4808 106.874 45.6576L108.112 48.0868C107.115 48.2194 106.138 47.9625 105.18 47.3162C104.233 46.6638 103.366 45.6389 102.579 44.2414C101.533 42.3855 101.082 40.7107 101.225 39.217C101.375 37.7343 102.213 36.5741 103.739 35.7364C105.243 34.9108 106.676 34.818 108.035 35.4582C109.401 36.1092 110.586 37.3245 111.588 39.104C113.686 42.8269 113.064 45.605 109.723 47.4383ZM109.896 40.0328C108.801 38.0895 107.476 37.3444 105.921 37.7976L109.612 44.348C110.222 43.9414 110.553 43.3595 110.605 42.6024C110.673 41.8501 110.437 40.9936 109.896 40.0328Z" fill="#3F3F3F" fill-opacity="0.25"/>
<path d="M119.191 58.6498C119.335 59.1935 119.412 59.7032 119.42 60.1788L117.033 60.7966C116.919 59.9738 116.806 59.3509 116.694 58.928C116.385 57.768 115.841 56.9986 115.06 56.6196C114.279 56.2406 113.19 56.2317 111.795 56.5929L108.361 57.4817L107.643 54.7811L117.266 52.2906L117.93 54.7919L115.47 55.4287C116.435 55.5663 117.233 55.9087 117.862 56.456C118.507 57.0123 118.95 57.7435 119.191 58.6498Z" fill="#3F3F3F" fill-opacity="0.25"/>
<path d="M121 74.4418C120.996 78.2893 119.5 80.2211 116.513 80.2371L110.856 80.2675L110.842 77.6817L112.949 77.6704C111.387 76.6545 110.599 74.9473 110.586 72.5489C110.577 71.0749 110.843 69.9555 111.383 69.1906C111.936 68.4381 112.655 68.0595 113.541 68.0547C114.529 68.0494 115.259 68.5015 115.732 69.4108C116.218 70.3326 116.523 71.7176 116.647 73.5657L116.915 77.443L117.086 77.4421C117.694 77.4388 118.173 77.1864 118.525 76.6849C118.889 76.1957 119.069 75.4515 119.063 74.4522C119.054 72.7283 118.592 71.7065 117.679 71.3866L117.665 68.7634C118.463 68.859 119.117 69.1865 119.626 69.7459C120.135 70.3054 120.493 70.978 120.7 71.7639C120.907 72.5498 121.007 73.4424 121 74.4418ZM112.526 73.288C112.533 74.5497 112.773 75.5602 113.245 76.3197C113.73 77.0791 114.308 77.457 114.979 77.4534L115.321 77.4516L115.055 73.9303C114.986 72.8813 114.842 72.1014 114.624 71.5904C114.419 71.0793 114.114 70.8249 113.709 70.827C113.342 70.829 113.052 71.0367 112.839 71.4501C112.626 71.8634 112.522 72.4761 112.526 73.288Z" fill="#3F3F3F" fill-opacity="0.25"/>
<path d="M115.017 104.526C114.566 105.813 113.843 106.69 112.849 107.157C111.851 107.635 110.676 107.644 109.324 107.182L103.96 105.35L104.885 102.712L109.568 104.311C110.405 104.597 111.141 104.617 111.776 104.372C112.412 104.126 112.87 103.602 113.151 102.799C113.478 101.866 113.426 101.022 112.995 100.267C112.575 99.5155 111.809 98.9499 110.697 98.57L106.804 97.2403L107.729 94.6019L112.411 96.2012C113.248 96.4871 113.985 96.5073 114.62 96.2616C115.255 96.0159 115.715 95.4858 116.001 94.6712C116.324 93.7505 116.269 92.9123 115.838 92.1569C115.418 91.4055 114.652 90.8399 113.54 90.46L109.647 89.1304L110.572 86.492L119.973 89.7027L119.122 92.1286L116.916 91.375C118.236 92.7646 118.553 94.4392 117.866 96.3988C117.523 97.3786 117.014 98.1235 116.339 98.6334C115.673 99.1592 114.885 99.419 113.977 99.4128C114.666 100.084 115.097 100.859 115.271 101.738C115.445 102.617 115.36 103.547 115.017 104.526Z" fill="#3F3F3F" fill-opacity="0.25"/>
<path d="M109.596 116.292L111.709 117.724L110.011 120.164L107.899 118.733L109.596 116.292ZM100.246 110.069L108.447 115.627L106.846 117.928L98.6451 112.371L100.246 110.069Z" fill="#3F3F3F" fill-opacity="0.25"/>
<path d="M85.8163 125.921L88.5298 123.381L94.3754 123.229L95.7252 121.965L93.0339 119.165L95.0862 117.243L104.702 127.249L102.649 129.17L97.2407 123.542L95.8495 124.844L95.4583 130.427L92.9239 132.8L93.7472 125.625L85.8163 125.921Z" fill="#3F3F3F" fill-opacity="0.25"/>
<path d="M80.7015 140.636C77.23 142.386 74.8062 141.953 73.4302 139.337L70.8239 134.381L73.1492 133.19L74.12 135.036C74.3239 133.2 75.5043 131.73 77.6611 130.625C78.9866 129.946 80.1173 129.669 81.0533 129.795C81.9838 129.937 82.6532 130.397 83.0613 131.173C83.5161 132.037 83.4414 132.885 82.8371 133.715C82.2274 134.562 81.1175 135.462 79.5075 136.413L76.1332 138.416L76.212 138.566C76.4918 139.098 76.938 139.404 77.5506 139.485C78.1578 139.582 78.9107 139.4 79.8094 138.94C81.3596 138.146 82.0708 137.275 81.9431 136.327L84.302 135.118C84.5795 135.863 84.5821 136.586 84.3098 137.289C84.0376 137.991 83.5942 138.612 82.9798 139.152C82.3654 139.692 81.606 140.187 80.7015 140.636ZM77.8792 132.666C76.7446 133.248 75.9426 133.919 75.4731 134.68C75.0095 135.452 74.9321 136.132 75.2411 136.72L75.3986 137.019L78.4527 135.18C79.3671 134.642 80.005 134.16 80.3665 133.735C80.7337 133.322 80.8241 132.938 80.6375 132.583C80.4684 132.262 80.149 132.102 79.6792 132.103C79.2093 132.105 78.6094 132.292 77.8792 132.666Z" fill="#3F3F3F" fill-opacity="0.25"/>
</svg>
