<svg width="20" height="20" viewBox="0 0 20 20" fill="none" xmlns="http://www.w3.org/2000/svg">
<rect width="20" height="20" rx="10" fill="#3F3F3F"/>
<path d="M8.28931 12.5282C7.8551 12.5282 7.50379 12.8919 7.50379 13.3364C7.50379 13.781 7.8551 14.1447 8.28931 14.1447C8.72352 14.1447 9.07878 13.781 9.07878 13.3364C9.07878 12.8919 8.72352 12.5282 8.28931 12.5282ZM5.9209 6.06201V6.87028H6.71037L8.13142 9.93767L7.59852 10.9278C7.53537 11.041 7.49984 11.1743 7.49984 11.3158C7.49984 11.7603 7.8551 12.124 8.28931 12.124H13.0261V11.3158H8.4551C8.39984 11.3158 8.35641 11.2713 8.35641 11.2147L8.36826 11.1662L8.72352 10.5075H11.6643C11.9603 10.5075 12.2209 10.3418 12.3551 10.0912L13.7682 7.4684C13.7998 7.41182 13.8156 7.34312 13.8156 7.27442C13.8156 7.05214 13.638 6.87028 13.4209 6.87028H7.58273L7.21168 6.06201H5.9209ZM12.2367 12.5282C11.8025 12.5282 11.4511 12.8919 11.4511 13.3364C11.4511 13.781 11.8025 14.1447 12.2367 14.1447C12.6709 14.1447 13.0261 13.781 13.0261 13.3364C13.0261 12.8919 12.6709 12.5282 12.2367 12.5282Z" fill="white"/>
</svg>
