<svg width="115" height="10" viewBox="0 0 115 10" fill="none" xmlns="http://www.w3.org/2000/svg">
<path d="M0 4.94018V9.86694H0.871314H1.74263V6.29837C1.75603 3.62194 1.78284 2.80969 1.90349 3.00942C2.37265 3.8483 6.126 8.66854 6.31367 8.66854C6.54155 8.66854 9.91957 4.36761 10.5362 3.30236L10.8579 2.74311V6.29837V9.86694H11.9303H13.0027V4.94018V0.0134153H12.0777H11.1528L8.84718 3.02274C7.14477 5.23312 6.50134 5.99211 6.3807 5.87227C6.30027 5.79238 5.24129 4.46082 4.02145 2.9029L1.79625 0.0799932L0.898123 0.0400457L0 9.91821e-05V4.94018Z" fill="#3F3F3F"/>
<path d="M35.9248 4.94018V9.86694H37.0642H38.2036V7.73645C38.2036 6.56468 38.2304 5.60596 38.2706 5.60596C38.2975 5.60596 39.6782 6.56468 41.3269 7.73645L44.3296 9.86694H46.032C47.091 9.86694 47.7076 9.81368 47.654 9.73379C47.6138 9.66721 46.0052 8.52207 44.1017 7.1772C42.1849 5.84564 40.6165 4.71381 40.6165 4.66055C40.6165 4.60729 41.9972 3.59531 43.6996 2.41022C45.3886 1.22513 46.8095 0.199832 46.8631 0.133254C46.9034 0.0666761 46.3001 0.0134144 45.402 0.0134144H43.8739L41.0723 2.07733L38.2706 4.14124L38.2304 2.07733L38.1902 0.0134144H37.0642H35.9248V4.94018Z" fill="#3F3F3F"/>
<path d="M15.4155 6.60453V10H16.059C16.6756 9.98668 16.7292 9.94674 19.2359 7.84288L21.7828 5.71238L21.823 7.85619L21.8498 10H22.6541H23.4584V6.60453V3.20905H22.815C22.1716 3.20905 22.1313 3.23569 19.6246 5.32623L17.0911 7.44341L17.0509 5.32623L17.0241 3.20905H16.2198H15.4155V6.60453Z" fill="#3F3F3F"/>
<path d="M25.7911 3.36884C25.6303 3.43542 25.4292 3.64847 25.3488 3.82157C25.1879 4.16778 25.1343 8.76165 25.2818 9.30759C25.456 9.93342 25.8716 10 29.3568 10C33.0432 10 33.271 9.94674 33.4989 9.09454C33.6866 8.44208 33.6866 4.75366 33.4989 4.1012C33.271 3.27563 32.9761 3.20905 29.263 3.22237C27.3595 3.22237 25.952 3.28895 25.7911 3.36884ZM31.7697 6.60453V8.53529H29.3568H26.944V6.60453V4.67377H29.3568H31.7697V6.60453Z" fill="#3F3F3F"/>
<path d="M48.3916 6.60453V10H51.9439H55.4962V9.26764V8.53529H52.8822H50.2683V7.86951V7.20373H51.7428H53.2173V6.53795V5.87217H51.7428H50.2683V5.27297V4.67377H52.8822H55.4962V3.94141V3.20905H51.9439H48.3916V6.60453Z" fill="#3F3F3F"/>
<path d="M56.8364 6.60453V10H57.7077H58.5656L58.6059 8.76165L58.6461 7.53662L61.0992 7.47004L63.5656 7.40346L63.8874 7.03063C64.1823 6.69774 64.2091 6.53795 64.2091 5.40613C64.2091 4.0213 64.075 3.58189 63.5791 3.35553C63.378 3.26232 62.1179 3.20905 60.0536 3.20905H56.8364V6.60453ZM62.5737 5.05992C62.6005 5.21971 62.5871 5.51265 62.5469 5.68575C62.4665 6.00533 62.453 6.00533 60.5228 6.00533H58.5791V5.33955V4.66045L60.563 4.7004C62.5201 4.74035 62.5335 4.74035 62.5737 5.05992Z" fill="#3F3F3F"/>
<path d="M69.5305 3.502C69.4233 3.6751 68.6324 5.05992 67.7611 6.60453C66.8898 8.14913 66.0989 9.53395 66.0051 9.69374L65.8174 10H66.7557H67.6941L68.056 9.26764L68.4179 8.53529H70.442H72.4662L72.8549 9.26764L73.2571 10H74.2356C74.812 10 75.2008 9.94674 75.174 9.86684C75.1605 9.80027 74.2892 8.26897 73.2571 6.48469L71.3804 3.22237L70.5493 3.20905C69.8254 3.20905 69.6914 3.249 69.5305 3.502ZM71.0855 5.93875C71.3536 6.498 71.5815 6.97736 71.5815 7.00399C71.5815 7.04394 71.0721 7.07057 70.442 7.07057C69.812 7.07057 69.3026 7.04394 69.3026 7.00399C69.3026 6.84421 70.4018 4.94008 70.4957 4.94008C70.5493 4.94008 70.804 5.39281 71.0855 5.93875Z" fill="#3F3F3F"/>
<path d="M76.4072 6.59121V10H77.0775H77.7477V7.93609C77.7477 6.80426 77.7879 5.87217 77.8549 5.87217C77.9086 5.88549 78.5118 6.63116 79.1954 7.53662C80.0265 8.65513 80.5225 9.20107 80.6834 9.20107C80.8576 9.20107 81.367 8.64181 82.2249 7.5233L83.5118 5.83222V7.92277V10H84.3831H85.2544V6.60453V3.20905H84.5306H83.7933L82.2919 5.15313L80.7906 7.11052L80.5493 6.79095C80.4287 6.61784 79.7584 5.75233 79.0614 4.8735L77.8013 3.27563L77.1043 3.23569L76.4072 3.19574V6.59121Z" fill="#3F3F3F"/>
<path d="M86.8633 6.60453V10H87.5201C88.177 10 88.1904 9.98668 90.7105 7.88282L93.2306 5.76565L93.2708 7.88282L93.2976 10H94.1019H94.9062V6.60453V3.20905H94.2896C93.6997 3.20905 93.6059 3.27563 91.3137 5.17976C90.0134 6.25832 88.8472 7.21704 88.74 7.29694C88.5657 7.43009 88.5389 7.19041 88.5925 5.32623L88.6327 3.20905H87.748H86.8633V6.60453Z" fill="#3F3F3F"/>
<path d="M96.6484 6.60453V10H97.5198H98.3911V8.66844C98.3911 7.93609 98.4313 7.33688 98.4983 7.33688C98.5519 7.3502 99.4098 7.9494 100.402 8.66844L102.211 10H103.686H105.147L104.222 9.33422C103.713 8.9747 102.587 8.17577 101.729 7.57656C100.858 6.97736 100.174 6.44474 100.214 6.39148C100.241 6.33822 101.233 5.61917 102.426 4.79361L104.584 3.27563L103.284 3.23569L101.997 3.19574L100.268 4.47403C99.316 5.16644 98.5117 5.73901 98.4715 5.73901C98.4313 5.73901 98.3911 5.16644 98.3911 4.47403V3.20905H97.5198H96.6484V6.60453Z" fill="#3F3F3F"/>
<path d="M109.343 3.30226C108.713 4.36751 105.63 9.88016 105.63 9.93342C105.63 9.97337 106.019 10 106.501 10H107.373L107.734 9.26764L108.096 8.53529H110.147H112.198L112.56 9.26764L112.922 10H113.968H115L113.029 6.60453L111.059 3.20905H110.228C109.772 3.20905 109.37 3.249 109.343 3.30226ZM110.831 6.00533L111.407 7.07057H110.188H108.968L109.531 6.00533C109.852 5.41944 110.134 4.94008 110.174 4.94008C110.214 4.94008 110.509 5.41944 110.831 6.00533Z" fill="#3F3F3F"/>
</svg>
